# xmcd CD database file
#
# Track frame offsets:
#	183
#	16925
#	31533
#
# Disc length: 649 seconds
#
# Revision: 0
# Processed by: cddbd v1.4PL0 Copyright (c) Steve Scherf et al.
# Submitted via: CDex 1.50
#
DISCID=11028703
DTITLE=BELLAMY BROTHERS - Beggars and Heros
DYEAR=1992
DGENRE=Country
TTITLE0=BEGGARS and HEROS
TTITLE1=MIAMI MOON
TTITLE2=I LOVE YOU MORE AND MORE
EXTD=YEAR: 1992
EXTT0=
EXTT1=
EXTT2=
PLAYORDER=
